<svg width="20" height="20" viewBox="0 0 20 20" fill="none" xmlns="http://www.w3.org/2000/svg">
<path d="M18.5583 19.7229L11.4354 12.6C10.8938 13.0694 10.2618 13.4351 9.53958 13.6969C8.81736 13.9587 8.05 14.0896 7.2375 14.0896C5.2875 14.0896 3.63542 13.4125 2.28125 12.0583C0.927083 10.7042 0.25 9.07012 0.25 7.15623C0.25 5.24235 0.927083 3.60832 2.28125 2.25415C3.63542 0.899984 5.27847 0.2229 7.21042 0.2229C9.12431 0.2229 10.7538 0.899984 12.099 2.25415C13.4441 3.60832 14.1167 5.24235 14.1167 7.15623C14.1167 7.93262 13.9903 8.68193 13.7375 9.40415C13.4847 10.1264 13.1056 10.8035 12.6 11.4354L19.75 18.5312L18.5583 19.7229ZM7.21042 12.4646C8.67292 12.4646 9.91875 11.9455 10.9479 10.9073C11.9771 9.86908 12.4917 8.61873 12.4917 7.15623C12.4917 5.69373 11.9771 4.44339 10.9479 3.40519C9.91875 2.367 8.67292 1.8479 7.21042 1.8479C5.72986 1.8479 4.47049 2.367 3.43229 3.40519C2.3941 4.44339 1.875 5.69373 1.875 7.15623C1.875 8.61873 2.3941 9.86908 3.43229 10.9073C4.47049 11.9455 5.72986 12.4646 7.21042 12.4646Z" fill="#707070"/>
</svg>
