<svg width="30" height="26" viewBox="0 0 30 26" fill="none" xmlns="http://www.w3.org/2000/svg">
<path d="M9.42375 25.125C20.745 25.125 26.9381 15.7444 26.9381 7.62377C26.9381 7.36127 26.9381 7.09502 26.9269 6.83252C28.1326 5.95968 29.1732 4.87905 30 3.64127C28.8737 4.13786 27.6802 4.46515 26.4581 4.61252C27.7454 3.84309 28.7095 2.63246 29.1712 1.20564C27.9619 1.92213 26.6382 2.42509 25.2581 2.69252C24.3303 1.70444 23.1026 1.04986 21.7652 0.830188C20.4277 0.610513 19.0551 0.837996 17.86 1.4774C16.6649 2.11681 15.714 3.13245 15.1546 4.36701C14.5952 5.60157 14.4585 6.98614 14.7656 8.30627C12.3183 8.18355 9.92403 7.54777 7.73821 6.44016C5.55238 5.33255 3.62378 3.77785 2.0775 1.87689C1.29251 3.23267 1.05295 4.83639 1.40746 6.36239C1.76197 7.88839 2.68398 9.22226 3.98625 10.0931C3.01039 10.06 2.05598 9.79794 1.2 9.32814V9.41252C1.20168 10.8328 1.6937 12.2089 2.59289 13.3083C3.49208 14.4077 4.74328 15.1629 6.135 15.4463C5.60674 15.5918 5.06106 15.6643 4.51313 15.6619C4.12684 15.6631 3.74134 15.6273 3.36187 15.555C3.75522 16.7776 4.52114 17.8466 5.55234 18.6122C6.58354 19.3777 7.82838 19.8016 9.1125 19.8244C6.93104 21.5378 4.23638 22.467 1.4625 22.4625C0.973726 22.4646 0.485293 22.4364 0 22.3781C2.81534 24.173 6.08493 25.1261 9.42375 25.125V25.125Z" fill="#2285E1"/>
</svg>
