<svg width="30" height="22" viewBox="0 0 30 22" fill="none" xmlns="http://www.w3.org/2000/svg">
<path d="M15.0956 0H15.2625C16.8038 0.005625 24.6131 0.0618753 26.7188 0.628125C27.3553 0.800941 27.9353 1.13779 28.4009 1.60502C28.8665 2.07224 29.2013 2.65347 29.3719 3.29062C29.5612 4.00312 29.6944 4.94625 29.7844 5.91938L29.8031 6.11438L29.8444 6.60187L29.8594 6.79688C29.9813 8.51062 29.9962 10.1156 29.9981 10.4662V10.6069C29.9962 10.9706 29.9794 12.6844 29.8444 14.4694L29.8294 14.6663L29.8125 14.8613C29.7187 15.9338 29.58 16.9988 29.3719 17.7825C29.2018 18.4199 28.8672 19.0014 28.4015 19.4687C27.9359 19.936 27.3556 20.2727 26.7188 20.445C24.5438 21.03 16.2769 21.0713 15.1312 21.0731H14.865C14.2856 21.0731 11.8894 21.0619 9.37687 20.9756L9.05812 20.9644L8.895 20.9569L8.57437 20.9438L8.25375 20.9306C6.1725 20.8388 4.19063 20.6906 3.2775 20.4431C2.64092 20.271 2.06075 19.9346 1.59511 19.4676C1.12947 19.0007 0.794713 18.4196 0.624375 17.7825C0.41625 17.0006 0.2775 15.9338 0.18375 14.8613L0.16875 14.6644L0.15375 14.4694C0.0612142 13.1989 0.00993725 11.9257 0 10.6519L0 10.4213C0.00375 10.0181 0.01875 8.625 0.12 7.0875L0.133125 6.89438L0.13875 6.79688L0.15375 6.60187L0.195 6.11438L0.21375 5.91938C0.30375 4.94625 0.436875 4.00125 0.62625 3.29062C0.796301 2.65321 1.13093 2.07171 1.59659 1.6044C2.06225 1.1371 2.64257 0.800423 3.27937 0.628125C4.1925 0.384375 6.17437 0.234375 8.25562 0.140625L8.57437 0.1275L8.89687 0.11625L9.05812 0.110625L9.37875 0.0975003C11.1632 0.0400776 12.9484 0.00819912 14.7337 0.00187509H15.0956V0ZM12 6.01875V15.0525L19.7944 10.5375L12 6.01875Z" fill="#2285E1"/>
</svg>
